<svg fill="none" viewBox="0 0 800 200" width="800" height="200" xmlns="http://www.w3.org/2000/svg">
  <defs>
    <style>
      .pixel-art { shape-rendering: crispEdges; }
      
      /* --- ANIMASI BURUNG --- */
      @keyframes flyLeft { 0% { transform: translateX(850px); } 100% { transform: translateX(-150px); } }
      @keyframes flyRight { 0% { transform: translateX(-150px) scaleX(-1); } 100% { transform: translateX(850px) scaleX(-1); } }
      @keyframes glide { 0%, 100% { transform: translateY(0); } 50% { transform: translateY(-8px); } }

      /* --- ANIMASI SINAR MATAHARI --- */
      @keyframes shimmerSky {
        0%, 100% { transform: skewX(-20deg) translateX(0); opacity: 0.15; }
        50% { transform: skewX(-20deg) translateX(15px); opacity: 0.25; }
      }

      /* --- ANIMASI AWAN BERGERAK --- */
      @keyframes cloudDrift { 0% { transform: translateX(0); } 100% { transform: translateX(-30px); } }

      /* Classes */
      .bird-container-1 { animation: flyLeft 15s linear infinite; }
      .bird-container-2 { animation: flyRight 18s linear infinite; }
      .bird-glide { animation: glide 3s ease-in-out infinite; }
      .sun-ray { animation: shimmerSky 6s ease-in-out infinite alternate; fill: #ffffff; }
      .cloud-move { animation: cloudDrift 15s linear infinite alternate; }
    </style>

    <g id="bird-red" class="pixel-art">
      <path fill="#FF5252" d="M12 4h12v4h-12zM8 8h20v8h-20zM12 16h12v4h-12z"/>
      <path fill="#D32F2F" d="M12 0h4v4h-4zM20 0h4v4h-4zM12 20h4v4h-4zM20 20h4v4h-4z"/>
      <path fill="#000" d="M10 10h2v2h-2z"/>
      <path fill="#FFD740" d="M0 12h4v4h-4z"/>
    </g>

    <g id="cloud-pixel" class="pixel-art">
      <rect x="8" y="0" width="24" height="4" fill="#fff"/>
      <rect x="4" y="4" width="32" height="8" fill="#fff"/>
      <rect x="0" y="8" width="40" height="4" fill="#fff"/>
    </g>
  </defs>

  <rect width="100%" height="100%" fill="#81D4FA" />

  <rect x="150" y="-50" width="80" height="400" opacity="0.2" class="sun-ray" />
  <rect x="500" y="-50" width="100" height="400" opacity="0.1" class="sun-ray" style="animation-delay: 2s" />

  <g class="cloud-move">
    <use href="#cloud-pixel" x="100" y="50" opacity="0.8"/>
    <use href="#cloud-pixel" x="400" y="30" opacity="0.5" transform="scale(0.8)"/>
    <use href="#cloud-pixel" x="650" y="70" opacity="0.7"/>
  </g>

  <rect x="0" y="185" width="800" height="15" fill="#118EEA" />
  <rect x="0" y="192" width="800" height="8" fill="#0f3460" />

  <use href="#cloud-pixel" x="50" y="170" transform="scale(1.2)" opacity="0.9"/>
  <use href="#cloud-pixel" x="300" y="175" transform="scale(1.4)" opacity="0.7"/>
  <use href="#cloud-pixel" x="600" y="165" transform="scale(1.1)" opacity="0.8"/>

  <g class="bird-container-1"><g class="bird-glide"><use href="#bird-red" x="0" y="60" /></g></g>
  <g class="bird-container-2" style="animation-duration: 20s;"><g class="bird-glide" style="animation-delay: 1s;"><use href="#bird-red" x="0" y="110" transform="scale(0.8)" /></g></g>

</svg>
