<svg fill="none" viewBox="0 0 800 200" width="800" height="200" xmlns="http://www.w3.org/2000/svg">
  <defs>
    <style>
      .pixel-art { shape-rendering: crispEdges; }
      
      /* --- ANIMASI BURUNG --- */
      @keyframes flyLeft { 0% { transform: translateX(850px); } 100% { transform: translateX(-150px); } }
      @keyframes flyRight { 0% { transform: translateX(-150px) scaleX(-1); } 100% { transform: translateX(850px) scaleX(-1); } }
      @keyframes glide { 0%, 100% { transform: translateY(0); } 50% { transform: translateY(-10px); } }

      /* --- ANIMASI SINAR MATAHARI --- */
      @keyframes shimmerSky {
        0%, 100% { transform: skewX(-20deg) translateX(0); opacity: 0.15; }
        50% { transform: skewX(-20deg) translateX(15px); opacity: 0.25; }
      }

      /* --- ANIMASI AWAN BERGERAK --- */
      @keyframes cloudDrift { 0% { transform: translateX(0); } 100% { transform: translateX(-40px); } }

      /* --- ANIMASI PARTIKEL ANGIN --- */
      @keyframes windDrift { 0% { transform: translateY(0) translateX(0); opacity: 0; } 20% { opacity: 0.5; } 80% { opacity: 0.5; } 100% { transform: translateY(50px) translateX(-50px); opacity: 0; } }

      /* Classes */
      .bird-container-1 { animation: flyLeft 15s linear infinite; }
      .bird-container-2 { animation: flyRight 18s linear infinite; }
      .bird-container-3 { animation: flyLeft 12s linear infinite; }
      .bird-glide { animation: glide 3s ease-in-out infinite; }
      
      .sun-ray { animation: shimmerSky 6s ease-in-out infinite alternate; fill: #ffffff; }
      .cloud-pattern { fill: rgba(255,255,255,0.4); animation: cloudDrift 20s linear infinite; }
      .wind { fill: #fff; animation: windDrift 8s linear infinite; }
    </style>

    <g id="bird-red" class="pixel-art">
      <path fill="#FF5252" d="M12 4h12v4h-12zM8 8h20v8h-20zM4 12h4v4h-4zM28 12h4v4h-4zM12 16h12v4h-12z"/>
      <path fill="#D32F2F" d="M12 0h4v4h-4zM20 0h4v4h-4zM12 20h4v4h-4zM20 20h4v4h-4z"/>
      <path fill="#000" d="M10 10h2v2h-2z"/>
      <path fill="#FFD740" d="M0 12h4v4h-4z"/>
    </g>

    <g id="bird-white" class="pixel-art">
      <path fill="#FFFFFF" d="M12 4h12v4h-12zM8 8h20v8h-20zM4 12h4v4h-4zM28 12h4v4h-4zM12 16h12v4h-12z"/>
      <path fill="#ECEFF1" d="M12 0h4v4h-4zM20 0h4v4h-4zM12 20h4v4h-4zM20 20h4v4h-4z"/>
      <path fill="#000" d="M10 10h2v2h-2z"/>
      <path fill="#FFAB40" d="M0 12h4v4h-4z"/>
    </g>

    <g id="cloud-asset" class="pixel-art">
      <rect x="8" y="0" width="24" height="4" fill="#fff"/>
      <rect x="4" y="4" width="32" height="8" fill="#fff"/>
      <rect x="0" y="8" width="40" height="4" fill="#fff"/>
    </g>
  </defs>

  <rect width="100%" height="100%" fill="#81D4FA" />

  <rect x="150" y="-50" width="80" height="400" opacity="0.2" class="sun-ray" style="animation-delay: 0s" />
  <rect x="450" y="-50" width="120" height="400" opacity="0.1" class="sun-ray" style="animation-delay: 2s" />

  <use href="#cloud-asset" x="100" y="160" transform="scale(1.5)" opacity="0.8"/>
  <use href="#cloud-asset" x="400" y="170" transform="scale(1.2)" opacity="0.6"/>
  <use href="#cloud-asset" x="650" y="155" transform="scale(1.8)" opacity="0.7"/>

  <rect x="200" y="50" width="4" height="2" class="wind" style="animation-delay: 0s"/>
  <rect x="500" y="100" width="3" height="1" class="wind" style="animation-delay: 3s"/>
  <rect x="700" y="30" width="5" height="2" class="wind" style="animation-delay: 5s"/>

  <g class="bird-container-1"><g class="bird-glide" style="animation-duration: 2s;"><use href="#bird-red" x="0" y="40" /></g></g>
  <g class="bird-container-2"><g class="bird-glide" style="animation-duration: 3s; animation-delay: 1s;"><use href="#bird-white" x="0" y="100" /></g></g>
  <g class="bird-container-3"><g class="bird-glide" style="animation-duration: 2.5s;"><use href="#bird-red" x="0" y="150" transform="scale(0.7)" /></g></g>

</svg>
